<svg xmlns="http://www.w3.org/2000/svg" xmlns:xlink="http://www.w3.org/1999/xlink" width="500" zoomAndPan="magnify" viewBox="0 0 375 374.999991" height="500" preserveAspectRatio="xMidYMid meet" version="1.0"><defs><g/></defs><path stroke-linecap="butt" transform="matrix(0.75, 0, 0, 0.75, 5.428976, -95.261471)" fill="none" stroke-linejoin="miter" d="M 112.375957 277.359062 C 134.021791 277.359062 151.339501 294.296563 151.339501 315.098648 C 151.339501 335.895524 134.021791 352.931984 112.375957 352.931984 C 90.448872 352.931984 73.506162 335.895524 73.506162 315.098648 C 73.506162 294.296563 90.448872 277.359062 112.375957 277.359062 Z M 112.375957 406.859071 C 163.667627 406.859071 207.995755 367.520527 207.995755 315.098648 C 207.995755 269.265312 173.740544 229.546559 127.058249 224.088225 L 187.573878 140.895512 L 120.094707 140.895512 L 39.532202 253.827811 C 27.204076 270.77052 16.381159 291.947605 16.381159 315.098648 C 16.381159 367.520527 59.579078 406.859071 112.375957 406.859071 Z M 378.381183 298.536147 L 324.834304 298.536147 L 378.381183 217.973642 Z M 472.870772 351.708025 L 472.870772 298.536147 L 435.792645 298.536147 L 435.792645 140.895512 L 383.745766 140.895512 L 238.058257 351.708025 L 378.381183 351.708025 L 378.381183 402.999696 L 435.792645 402.999696 L 435.792645 351.708025 Z M 472.870772 351.708025 " stroke="#000000" stroke-width="28.911825" stroke-opacity="1" stroke-miterlimit="4"/><g fill="#ffffff" fill-opacity="1"><g transform="translate(7.620382, 206.98851)"><g><path d="M 82.109375 -94.253906 C 98.300781 -94.253906 111.308594 -81.53125 111.308594 -65.917969 C 111.308594 -50.304688 98.300781 -37.585938 82.109375 -37.585938 C 65.628906 -37.585938 52.910156 -50.304688 52.910156 -65.917969 C 52.910156 -81.53125 65.628906 -94.253906 82.109375 -94.253906 Z M 82.109375 2.890625 C 120.5625 2.890625 153.808594 -26.597656 153.808594 -65.917969 C 153.808594 -100.324219 128.078125 -130.101562 93.097656 -134.152344 L 138.488281 -196.601562 L 87.890625 -196.601562 L 27.464844 -111.886719 C 18.214844 -99.167969 10.117188 -83.265625 10.117188 -65.917969 C 10.117188 -26.597656 42.5 2.890625 82.109375 2.890625 Z M 82.109375 2.890625 "/></g></g></g><g fill="#ffffff" fill-opacity="1"><g transform="translate(192.655314, 206.98851)"><g><path d="M 96.566406 -78.351562 L 56.378906 -78.351562 L 96.566406 -138.777344 Z M 167.398438 -38.453125 L 167.398438 -78.351562 L 139.644531 -78.351562 L 139.644531 -196.601562 L 100.613281 -196.601562 L -8.671875 -38.453125 L 96.566406 -38.453125 L 96.566406 0 L 139.644531 0 L 139.644531 -38.453125 Z M 167.398438 -38.453125 "/></g></g></g><path stroke-linecap="butt" transform="matrix(0.749686, -0.00396051, 0.00396212, 0.749989, 13.813878, 225.548114)" fill="none" stroke-linejoin="miter" d="M 0.000217066 7.498454 L 463.194164 7.501727 " stroke="#ff3131" stroke-width="15" stroke-opacity="1" stroke-miterlimit="4"/><path stroke-linecap="butt" transform="matrix(0.749686, -0.00396051, 0.00396212, 0.749989, 13.794066, 247.336037)" fill="none" stroke-linejoin="miter" d="M 0.000582237 7.499975 L 463.194557 7.49804 " stroke="#ff914d" stroke-width="15" stroke-opacity="1" stroke-miterlimit="4"/><path stroke-linecap="butt" transform="matrix(0.749686, -0.00396051, 0.00396212, 0.749989, 13.774257, 269.123946)" fill="none" stroke-linejoin="miter" d="M 0.000945065 7.501515 L 463.194919 7.49958 " stroke="#ffde59" stroke-width="15" stroke-opacity="1" stroke-miterlimit="4"/><path stroke-linecap="butt" transform="matrix(0.749686, -0.00396051, 0.00396212, 0.749989, 13.754446, 290.911884)" fill="none" stroke-linejoin="miter" d="M 0.00133786 7.497808 L 463.195285 7.501081 " stroke="#7ed957" stroke-width="15" stroke-opacity="1" stroke-miterlimit="4"/><path stroke-linecap="butt" transform="matrix(0.749686, -0.00396051, 0.00396212, 0.749989, 13.734636, 312.699824)" fill="none" stroke-linejoin="miter" d="M 0.00170219 7.499307 L 463.195649 7.50258 " stroke="#0cc0df" stroke-width="15" stroke-opacity="1" stroke-miterlimit="4"/><path stroke-linecap="butt" transform="matrix(0.75, 0, 0, 0.75, 81.25371, 304.559951)" fill="none" stroke-linejoin="miter" d="M 23.620054 66.581528 L 32.442972 66.581528 C 41.698181 66.581528 49.927348 59.769027 49.927348 48.170068 C 49.927348 37.315901 41.698181 29.84715 32.442972 29.84715 L 11.015887 29.84715 L 11.015887 86.998196 L 23.620054 86.998196 Z M 30.349222 39.758609 C 34.04193 39.758609 37.901305 42.956526 37.901305 48.170068 C 37.901305 53.628402 34.04193 56.649235 30.349222 56.649235 L 23.620054 56.649235 L 23.620054 39.758609 Z M 105.40131 58.331527 C 105.40131 67.154444 97.416934 75.242987 88.594017 75.242987 C 79.7711 75.242987 71.786724 67.154444 71.786724 58.331527 C 71.786724 49.503402 79.7711 41.524234 88.594017 41.524234 C 97.416934 41.524234 105.40131 49.503402 105.40131 58.331527 Z M 118.021102 58.409652 C 118.021102 42.607568 104.396101 29.0034 88.594017 29.0034 C 72.791933 29.0034 59.166932 42.607568 59.166932 58.409652 C 59.166932 74.216945 72.791933 87.841946 88.594017 87.841946 C 104.396101 87.841946 118.021102 74.216945 118.021102 58.409652 Z M 143.640896 61.451319 L 161.719022 86.998196 L 178.692981 86.998196 L 155.91173 58.409652 L 177.849231 29.84715 L 161.719022 29.84715 L 143.640896 55.394027 L 143.640896 29.84715 L 131.036728 29.84715 L 131.036728 86.998196 L 143.640896 86.998196 Z M 221.062776 75.571112 L 200.541941 75.571112 L 200.541941 64.055486 L 220.219026 64.055486 L 220.219026 52.623194 L 200.541941 52.623194 L 200.541941 41.274234 L 221.062776 41.274234 L 221.062776 29.84715 L 187.937774 29.84715 L 187.937774 86.998196 L 221.062776 86.998196 Z M 248.781528 66.581528 L 248.864861 66.581528 L 262.489862 86.998196 L 278.458613 86.998196 L 262.062778 65.982569 C 269.307571 64.222153 275.094029 57.836736 275.094029 48.170068 C 275.094029 37.315901 266.864862 29.84715 257.609653 29.84715 L 236.182568 29.84715 L 236.182568 86.998196 L 248.781528 86.998196 Z M 255.515903 39.758609 C 259.208612 39.758609 263.067987 42.956526 263.067987 48.170068 C 263.067987 53.628402 259.208612 56.649235 255.515903 56.649235 L 248.781528 56.649235 L 248.781528 39.758609 Z M 255.515903 39.758609 " stroke="#000000" stroke-width="6.304665" stroke-opacity="1" stroke-miterlimit="4"/><g fill="#ffffff" fill-opacity="1"><g transform="translate(85.730273, 369.809947)"><g><path d="M 13.238281 -15.320312 L 19.859375 -15.320312 C 26.792969 -15.320312 32.972656 -20.425781 32.972656 -29.125 C 32.972656 -37.257812 26.792969 -42.871094 19.859375 -42.871094 L 3.78125 -42.871094 L 3.78125 0 L 13.238281 0 Z M 18.28125 -35.429688 C 21.058594 -35.429688 23.957031 -33.035156 23.957031 -29.125 C 23.957031 -25.027344 21.058594 -22.757812 18.28125 -22.757812 L 13.238281 -22.757812 L 13.238281 -35.429688 Z M 18.28125 -35.429688 "/></g></g></g><g fill="#ffffff" fill-opacity="1"><g transform="translate(123.425964, 369.809947)"><g><path d="M 36.882812 -21.5 C 36.882812 -14.878906 30.890625 -8.828125 24.273438 -8.828125 C 17.652344 -8.828125 11.664062 -14.878906 11.664062 -21.5 C 11.664062 -28.117188 17.652344 -34.105469 24.273438 -34.105469 C 30.890625 -34.105469 36.882812 -28.117188 36.882812 -21.5 Z M 46.339844 -21.433594 C 46.339844 -33.289062 36.125 -43.5 24.273438 -43.5 C 12.417969 -43.5 2.207031 -33.289062 2.207031 -21.433594 C 2.207031 -9.582031 12.417969 0.628906 24.273438 0.628906 C 36.125 0.628906 46.339844 -9.582031 46.339844 -21.433594 Z M 46.339844 -21.433594 "/></g></g></g><g fill="#ffffff" fill-opacity="1"><g transform="translate(175.745807, 369.809947)"><g><path d="M 13.238281 -19.164062 L 26.792969 0 L 39.527344 0 L 22.445312 -21.433594 L 38.898438 -42.871094 L 26.792969 -42.871094 L 13.238281 -23.703125 L 13.238281 -42.871094 L 3.78125 -42.871094 L 3.78125 0 L 13.238281 0 Z M 13.238281 -19.164062 "/></g></g></g><g fill="#ffffff" fill-opacity="1"><g transform="translate(218.421281, 369.809947)"><g><path d="M 28.621094 -8.574219 L 13.238281 -8.574219 L 13.238281 -17.210938 L 27.992188 -17.210938 L 27.992188 -25.785156 L 13.238281 -25.785156 L 13.238281 -34.296875 L 28.621094 -34.296875 L 28.621094 -42.871094 L 3.78125 -42.871094 L 3.78125 0 L 28.621094 0 Z M 28.621094 -8.574219 "/></g></g></g><g fill="#ffffff" fill-opacity="1"><g transform="translate(254.604132, 369.809947)"><g><path d="M 13.238281 -15.320312 L 13.300781 -15.320312 L 23.515625 0 L 35.496094 0 L 23.199219 -15.761719 C 28.621094 -17.085938 32.972656 -21.875 32.972656 -29.125 C 32.972656 -37.257812 26.792969 -42.871094 19.859375 -42.871094 L 3.78125 -42.871094 L 3.78125 0 L 13.238281 0 Z M 18.28125 -35.429688 C 21.058594 -35.429688 23.957031 -33.035156 23.957031 -29.125 C 23.957031 -25.027344 21.058594 -22.757812 18.28125 -22.757812 L 13.238281 -22.757812 L 13.238281 -35.429688 Z M 18.28125 -35.429688 "/></g></g></g></svg>